<svg width="63" height="63" viewBox="0 0 63 63" fill="none" xmlns="http://www.w3.org/2000/svg">
<g clip-path="url(#clip0_547_1992)">
<path d="M44.2829 32.5079L31.5134 11.3477L18.7438 32.5079L31.5134 53.6747L44.2829 32.5079Z" fill="url(#paint0_linear_547_1992)"/>
<path d="M31.5134 53.6747V11.3477L44.2829 32.5079L31.5134 53.6747Z" fill="url(#paint1_linear_547_1992)"/>
<path d="M42.0801 32.5079L31.5134 27.5149L20.9399 32.5079L31.5134 37.5076L42.0801 32.5079Z" fill="#6F4FF2"/>
<path d="M37.3474 32.5078L31.5134 29.751L25.6726 32.5078L31.5134 35.2713L37.3474 32.5078Z" fill="url(#paint2_linear_547_1992)"/>
<path d="M63 31.5001C63 48.8955 48.8954 63.0001 31.5 63.0001C24.451 63.0001 17.9428 60.6838 12.6894 56.7722C8.24378 53.4613 4.71263 48.9957 2.51651 43.8291L4.59248 41.5395L5.6872 40.3313C9.35853 51.065 19.5181 58.7881 31.5 58.7881C44.5098 58.7881 55.3836 49.6832 58.1205 37.5011L53.1475 32.4747L59.7625 26.407L62.1456 24.2175C62.6996 26.5538 63 28.9903 63 31.5001Z" fill="url(#paint3_linear_547_1992)"/>
<path d="M61.3379 21.4072L59.0817 23.5099L57.9002 24.6113C54.8496 12.8764 44.1894 4.20534 31.5 4.20534C17.7625 4.20534 6.40145 14.3582 4.49904 27.5617L9.8525 32.4746L4.87952 37.501C4.87952 37.501 4.87952 37.5143 4.87952 37.521L3.69135 38.7292L1.45517 41.0054C0.507303 38.0016 -0.00668335 34.8109 -0.00668335 31.5C-8.20635e-06 14.0979 14.1046 0 31.5 0C34.0432 0 36.513 0.300381 38.876 0.874444C49.4228 3.39765 57.9002 11.2409 61.3379 21.4072Z" fill="url(#paint4_linear_547_1992)"/>
<path d="M4.88621 37.5209L3.69803 38.7291C3.10395 36.4195 2.78354 33.9964 2.78354 31.4999C2.78354 15.6398 15.6399 2.78345 31.5 2.78345C44.5833 2.78345 55.624 11.5346 59.0817 23.5098L57.9002 24.6112C54.8497 12.8763 44.1894 4.20525 31.5 4.20525C17.7626 4.20525 6.40147 14.3581 4.49905 27.5616L9.85252 32.4745L4.87953 37.5009C4.87953 37.5009 4.87953 37.5142 4.87953 37.5209H4.88621Z" fill="url(#paint5_linear_547_1992)"/>
<path d="M60.2098 31.5001C60.2098 47.3536 47.3535 60.2099 31.5 60.2099C19.171 60.2099 8.65766 52.44 4.5925 41.5395L5.68722 40.3313C9.35855 51.065 19.5181 58.7881 31.5 58.7881C44.5099 58.7881 55.3837 49.6832 58.1205 37.5011L53.1475 32.4747L59.7626 26.407C60.0563 28.0624 60.2098 29.7646 60.2098 31.5001Z" fill="url(#paint6_linear_547_1992)"/>
<path d="M16.8946 32.5163L14.4024 30.0242L11.9102 32.5163L14.4024 35.0085L16.8946 32.5163Z" fill="url(#paint7_linear_547_1992)"/>
<path d="M51.2225 32.5139L48.7303 30.0217L46.2382 32.5139L48.7303 35.0061L51.2225 32.5139Z" fill="url(#paint8_linear_547_1992)"/>
<g clip-path="url(#clip1_547_1992)">
<path d="M44.2829 32.5079L31.5134 11.3477L18.7438 32.5079L31.5134 53.6747L44.2829 32.5079Z" fill="url(#paint9_linear_547_1992)"/>
<path d="M31.5134 53.6747V11.3477L44.2829 32.5079L31.5134 53.6747Z" fill="url(#paint10_linear_547_1992)"/>
<path d="M42.0801 32.5079L31.5134 27.5149L20.9399 32.5079L31.5134 37.5076L42.0801 32.5079Z" fill="#6F4FF2"/>
<path d="M37.3474 32.5078L31.5134 29.751L25.6726 32.5078L31.5134 35.2713L37.3474 32.5078Z" fill="url(#paint11_linear_547_1992)"/>
<path d="M63 31.5001C63 48.8955 48.8954 63.0001 31.5 63.0001C24.451 63.0001 17.9428 60.6838 12.6894 56.7722C8.24378 53.4613 4.71263 48.9957 2.51651 43.8291L4.59248 41.5395L5.6872 40.3313C9.35853 51.065 19.5181 58.7881 31.5 58.7881C44.5098 58.7881 55.3836 49.6832 58.1205 37.5011L53.1475 32.4747L59.7625 26.407L62.1456 24.2175C62.6996 26.5538 63 28.9903 63 31.5001Z" fill="url(#paint12_linear_547_1992)"/>
<path d="M61.3379 21.4072L59.0817 23.5099L57.9002 24.6113C54.8496 12.8764 44.1894 4.20534 31.5 4.20534C17.7625 4.20534 6.40145 14.3582 4.49904 27.5617L9.8525 32.4746L4.87952 37.501C4.87952 37.501 4.87952 37.5143 4.87952 37.521L3.69135 38.7292L1.45517 41.0054C0.507303 38.0016 -0.00668335 34.8109 -0.00668335 31.5C-8.20635e-06 14.0979 14.1046 0 31.5 0C34.0432 0 36.513 0.300381 38.876 0.874444C49.4228 3.39765 57.9002 11.2409 61.3379 21.4072Z" fill="url(#paint13_linear_547_1992)"/>
<path d="M4.88621 37.5209L3.69803 38.7291C3.10395 36.4195 2.78354 33.9964 2.78354 31.4999C2.78354 15.6398 15.6399 2.78345 31.5 2.78345C44.5833 2.78345 55.624 11.5346 59.0817 23.5098L57.9002 24.6112C54.8497 12.8763 44.1894 4.20525 31.5 4.20525C17.7626 4.20525 6.40147 14.3581 4.49905 27.5616L9.85252 32.4745L4.87953 37.5009C4.87953 37.5009 4.87953 37.5142 4.87953 37.5209H4.88621Z" fill="url(#paint14_linear_547_1992)"/>
<path d="M60.2098 31.5001C60.2098 47.3536 47.3535 60.2099 31.5 60.2099C19.171 60.2099 8.65766 52.44 4.5925 41.5395L5.68722 40.3313C9.35855 51.065 19.5181 58.7881 31.5 58.7881C44.5099 58.7881 55.3837 49.6832 58.1205 37.5011L53.1475 32.4747L59.7626 26.407C60.0563 28.0624 60.2098 29.7646 60.2098 31.5001Z" fill="url(#paint15_linear_547_1992)"/>
<path d="M16.8946 32.5163L14.4024 30.0242L11.9102 32.5163L14.4024 35.0085L16.8946 32.5163Z" fill="url(#paint16_linear_547_1992)"/>
<path d="M51.2225 32.5139L48.7303 30.0217L46.2382 32.5139L48.7303 35.0061L51.2225 32.5139Z" fill="url(#paint17_linear_547_1992)"/>
</g>
</g>
<defs>
<linearGradient id="paint0_linear_547_1992" x1="29.0302" y1="38.7157" x2="37.2073" y2="18.2698" gradientUnits="userSpaceOnUse">
<stop stop-color="#B63AE4"/>
<stop offset="1" stop-color="#23E0FF"/>
</linearGradient>
<linearGradient id="paint1_linear_547_1992" x1="41.2524" y1="32.5079" x2="27.7219" y2="32.5079" gradientUnits="userSpaceOnUse">
<stop stop-color="#FFE496" stop-opacity="0"/>
<stop offset="0.94" stop-color="#EFEC53"/>
</linearGradient>
<linearGradient id="paint2_linear_547_1992" x1="25.6726" y1="32.5078" x2="37.3474" y2="32.5078" gradientUnits="userSpaceOnUse">
<stop stop-color="#B63AE4"/>
<stop offset="1" stop-color="#23E0FF"/>
</linearGradient>
<linearGradient id="paint3_linear_547_1992" x1="32.7549" y1="-31.5466" x2="32.7549" y2="131.707" gradientUnits="userSpaceOnUse">
<stop stop-color="#EB3C9C"/>
<stop offset="1" stop-color="#FFCD35"/>
</linearGradient>
<linearGradient id="paint4_linear_547_1992" x1="30.6656" y1="-58.9615" x2="30.6656" y2="113.651" gradientUnits="userSpaceOnUse">
<stop stop-color="#EB3C9C"/>
<stop offset="1" stop-color="#FFCD35"/>
</linearGradient>
<linearGradient id="paint5_linear_547_1992" x1="47.487" y1="10.9271" x2="6.41482" y2="30.0047" gradientUnits="userSpaceOnUse">
<stop stop-color="#FFE496" stop-opacity="0"/>
<stop offset="0.94" stop-color="#EFEC53"/>
</linearGradient>
<linearGradient id="paint6_linear_547_1992" x1="15.6933" y1="53.6616" x2="55.3102" y2="32.8351" gradientUnits="userSpaceOnUse">
<stop stop-color="#FFE496" stop-opacity="0"/>
<stop offset="0.94" stop-color="#EFEC53"/>
</linearGradient>
<linearGradient id="paint7_linear_547_1992" x1="14.4065" y1="34.9444" x2="14.4065" y2="30.432" gradientUnits="userSpaceOnUse">
<stop stop-color="#B63AE4"/>
<stop offset="1" stop-color="#23E0FF"/>
</linearGradient>
<linearGradient id="paint8_linear_547_1992" x1="48.7359" y1="34.9467" x2="48.7359" y2="30.4343" gradientUnits="userSpaceOnUse">
<stop stop-color="#B63AE4"/>
<stop offset="1" stop-color="#23E0FF"/>
</linearGradient>
<linearGradient id="paint9_linear_547_1992" x1="29.0302" y1="38.7157" x2="37.2073" y2="18.2698" gradientUnits="userSpaceOnUse">
<stop stop-color="#B63AE4"/>
<stop offset="1" stop-color="#23E0FF"/>
</linearGradient>
<linearGradient id="paint10_linear_547_1992" x1="41.2524" y1="32.5079" x2="27.7219" y2="32.5079" gradientUnits="userSpaceOnUse">
<stop stop-color="#FFE496" stop-opacity="0"/>
<stop offset="0.94" stop-color="#EFEC53"/>
</linearGradient>
<linearGradient id="paint11_linear_547_1992" x1="25.6726" y1="32.5078" x2="37.3474" y2="32.5078" gradientUnits="userSpaceOnUse">
<stop stop-color="#B63AE4"/>
<stop offset="1" stop-color="#23E0FF"/>
</linearGradient>
<linearGradient id="paint12_linear_547_1992" x1="32.7549" y1="-31.5466" x2="32.7549" y2="131.707" gradientUnits="userSpaceOnUse">
<stop stop-color="#EB3C9C"/>
<stop offset="1" stop-color="#FFCD35"/>
</linearGradient>
<linearGradient id="paint13_linear_547_1992" x1="30.6656" y1="-58.9615" x2="30.6656" y2="113.651" gradientUnits="userSpaceOnUse">
<stop stop-color="#EB3C9C"/>
<stop offset="1" stop-color="#FFCD35"/>
</linearGradient>
<linearGradient id="paint14_linear_547_1992" x1="47.487" y1="10.9271" x2="6.41482" y2="30.0047" gradientUnits="userSpaceOnUse">
<stop stop-color="#FFE496" stop-opacity="0"/>
<stop offset="0.94" stop-color="#EFEC53"/>
</linearGradient>
<linearGradient id="paint15_linear_547_1992" x1="15.6933" y1="53.6616" x2="55.3102" y2="32.8351" gradientUnits="userSpaceOnUse">
<stop stop-color="#FFE496" stop-opacity="0"/>
<stop offset="0.94" stop-color="#EFEC53"/>
</linearGradient>
<linearGradient id="paint16_linear_547_1992" x1="14.4065" y1="34.9444" x2="14.4065" y2="30.432" gradientUnits="userSpaceOnUse">
<stop stop-color="#B63AE4"/>
<stop offset="1" stop-color="#23E0FF"/>
</linearGradient>
<linearGradient id="paint17_linear_547_1992" x1="48.7359" y1="34.9467" x2="48.7359" y2="30.4343" gradientUnits="userSpaceOnUse">
<stop stop-color="#B63AE4"/>
<stop offset="1" stop-color="#23E0FF"/>
</linearGradient>
<clipPath id="clip0_547_1992">
<rect width="63" height="63" fill="white"/>
</clipPath>
<clipPath id="clip1_547_1992">
<rect width="63" height="63" fill="white"/>
</clipPath>
</defs>
</svg>
